<?xml version="1.0" standalone="no"?>
<!DOCTYPE svg PUBLIC "-//W3C//DTD SVG 20010904//EN"
 "http://www.w3.org/TR/2001/REC-SVG-20010904/DTD/svg10.dtd">
<svg version="1.0" xmlns="http://www.w3.org/2000/svg"
 width="1000.000000pt" height="1000.000000pt" viewBox="0 0 1000.000000 1000.000000"
 preserveAspectRatio="xMidYMid meet">
<metadata>
Created by potrace 1.11, written by Peter Selinger 2001-2013
</metadata>
<g transform="translate(0.000000,1000.000000) scale(0.100000,-0.100000)"
fill="#000000" stroke="none">
<path d="M4450 9359 c-19 -12 -37 -23 -39 -25 -11 -10 -7 -87 6 -100 20 -20
69 -44 76 -38 6 7 15 -34 22 -110 3 -33 7 -73 10 -90 8 -66 15 -123 20 -176 3
-30 7 -71 10 -90 3 -19 7 -55 10 -80 3 -25 7 -65 10 -90 5 -50 23 -206 30
-260 2 -19 7 -60 10 -90 4 -30 8 -66 10 -80 2 -14 6 -54 10 -90 3 -36 8 -77
11 -92 5 -23 1 -28 -19 -33 -34 -9 -41 -42 -14 -60 18 -11 87 -14 373 -14 324
0 353 1 368 18 14 15 14 20 2 37 -8 10 -20 19 -28 19 -16 0 -15 31 7 210 2 17
7 57 10 90 4 33 8 74 11 90 7 59 14 121 19 170 3 28 8 66 10 85 2 19 9 80 15
135 6 55 13 111 15 125 2 14 7 52 10 85 4 33 8 71 10 85 2 14 7 57 10 95 9 97
11 103 56 125 65 34 68 107 5 145 l-39 23 -38 -20 c-22 -11 -39 -25 -40 -32
-5 -63 0 -87 22 -105 l23 -18 -38 -109 c-20 -60 -38 -113 -40 -119 -2 -5 -6
-17 -9 -25 -4 -8 -25 -67 -47 -130 -25 -73 -38 -100 -35 -75 3 22 7 74 10 115
3 41 8 104 11 140 4 36 7 81 8 100 1 30 6 38 39 54 34 17 37 21 37 61 0 39 -3
45 -32 60 -30 15 -35 14 -65 -2 -29 -15 -33 -23 -33 -58 0 -29 5 -44 19 -52
18 -11 17 -17 -25 -150 -24 -76 -49 -155 -55 -177 -7 -24 -14 -35 -20 -29 -5
5 -39 97 -75 204 l-65 194 22 18 c16 13 23 30 24 63 2 42 0 46 -38 68 l-40 24
-38 -20 c-25 -13 -40 -28 -43 -46 -8 -37 0 -72 20 -87 16 -11 12 -29 -52 -219
-38 -113 -72 -206 -75 -206 -3 0 -30 78 -61 173 l-56 172 24 20 c17 15 24 31
24 57 0 31 -5 40 -35 58 l-35 22 -35 -22 c-30 -19 -35 -27 -35 -59 0 -33 5
-42 38 -64 38 -24 39 -27 41 -89 1 -34 4 -76 6 -93 2 -16 7 -70 10 -120 4 -49
9 -99 12 -110 3 -13 2 -17 -5 -10 -5 6 -29 66 -52 135 -23 69 -60 173 -81 233
l-38 107 23 15 c18 12 22 24 21 61 0 43 -3 47 -40 70 l-41 23 -34 -20z"/>
<path d="M1815 7620 c-1 -3 -1 -185 0 -405 2 -220 6 -881 10 -1470 l6 -1070
35 -204 c33 -197 50 -283 81 -401 7 -30 16 -64 18 -75 7 -35 67 -249 75 -270
4 -11 17 -51 30 -90 12 -38 24 -77 27 -85 4 -8 7 -19 9 -25 43 -154 241 -582
356 -770 10 -16 21 -37 25 -45 11 -25 187 -291 231 -350 160 -213 249 -316
447 -515 149 -151 270 -261 400 -365 44 -36 85 -69 92 -75 55 -46 262 -195
272 -195 5 0 11 -4 13 -8 4 -11 97 -72 109 -72 5 0 9 -4 9 -8 0 -4 30 -26 66
-47 36 -22 76 -47 89 -55 147 -94 423 -247 620 -343 88 -43 167 -82 175 -86
10 -6 58 14 145 59 194 100 288 151 306 166 8 8 19 14 23 14 14 0 277 161 451
276 249 164 503 359 699 535 27 24 58 52 70 62 89 77 299 294 419 435 156 181
357 459 449 622 14 25 41 72 60 105 111 195 281 596 334 785 20 72 93 363 98
386 3 16 7 40 10 54 2 14 10 59 16 100 7 41 14 83 16 94 2 10 6 41 9 70 4 28
8 65 10 81 15 132 18 389 19 1693 1 979 -2 1486 -9 1490 -12 8 -6315 10 -6320
2z"/>
</g>
</svg>
